<svg width="1200" height="630" viewBox="0 0 1200 630" fill="none" xmlns="http://www.w3.org/2000/svg">
  <rect width="1200" height="630" rx="32" fill="#0B1220"/>
  <rect x="40" y="40" width="1120" height="550" rx="28" fill="url(#bg)"/>
  <rect x="88" y="132" width="210" height="320" rx="24" fill="#0F172A" fill-opacity="0.72" stroke="#38BDF8" stroke-opacity="0.3"/>
  <rect x="348" y="112" width="180" height="108" rx="20" fill="#0F172A" fill-opacity="0.72" stroke="#22D3EE" stroke-opacity="0.32"/>
  <rect x="348" y="260" width="180" height="108" rx="20" fill="#0F172A" fill-opacity="0.72" stroke="#22D3EE" stroke-opacity="0.32"/>
  <rect x="348" y="408" width="180" height="108" rx="20" fill="#0F172A" fill-opacity="0.72" stroke="#22D3EE" stroke-opacity="0.32"/>
  <rect x="604" y="170" width="488" height="304" rx="26" fill="#020617" fill-opacity="0.5" stroke="#F8FAFC" stroke-opacity="0.12"/>
  <path d="M298 292H348" stroke="#67E8F9" stroke-width="12" stroke-linecap="round"/>
  <path d="M528 166H604" stroke="#67E8F9" stroke-width="12" stroke-linecap="round"/>
  <path d="M528 314H604" stroke="#67E8F9" stroke-width="12" stroke-linecap="round"/>
  <path d="M528 462H604" stroke="#67E8F9" stroke-width="12" stroke-linecap="round"/>
  <text x="118" y="214" fill="#E2E8F0" font-family="Arial, sans-serif" font-size="36" font-weight="700">Frontend</text>
  <text x="388" y="178" fill="#E2E8F0" font-family="Arial, sans-serif" font-size="28" font-weight="700">Auth</text>
  <text x="378" y="326" fill="#E2E8F0" font-family="Arial, sans-serif" font-size="28" font-weight="700">BFF</text>
  <text x="374" y="474" fill="#E2E8F0" font-family="Arial, sans-serif" font-size="28" font-weight="700">Aggregator</text>
  <text x="652" y="226" fill="#E2E8F0" font-family="Arial, sans-serif" font-size="26" font-weight="700">Backend Services</text>
  <text x="652" y="286" fill="#CBD5E1" font-family="Arial, sans-serif" font-size="22">User Profile API</text>
  <text x="652" y="334" fill="#CBD5E1" font-family="Arial, sans-serif" font-size="22">Notifications API</text>
  <text x="652" y="382" fill="#CBD5E1" font-family="Arial, sans-serif" font-size="22">Projects API</text>
  <text x="652" y="430" fill="#CBD5E1" font-family="Arial, sans-serif" font-size="22">Feature Flags API</text>
  <text x="88" y="560" fill="#F8FAFC" font-family="Arial, sans-serif" font-size="52" font-weight="700">BFF Frontend Architecture</text>
  <text x="88" y="598" fill="#CBD5E1" font-family="Arial, sans-serif" font-size="22">A screen-shaped backend layer for complex web and mobile clients</text>
  <defs>
    <linearGradient id="bg" x1="84" y1="78" x2="1106" y2="570" gradientUnits="userSpaceOnUse">
      <stop stop-color="#111827"/>
      <stop offset="0.5" stop-color="#0F172A"/>
      <stop offset="1" stop-color="#164E63"/>
    </linearGradient>
  </defs>
</svg>
