<svg width="1200" height="630" viewBox="0 0 1200 630" fill="none" xmlns="http://www.w3.org/2000/svg">
  <rect width="1200" height="630" rx="32" fill="#0B1020"/>
  <rect x="40" y="40" width="1120" height="550" rx="28" fill="url(#bg)"/>
  <rect x="90" y="174" width="180" height="120" rx="22" fill="#111827" fill-opacity="0.72" stroke="#60A5FA" stroke-opacity="0.35"/>
  <rect x="366" y="174" width="220" height="120" rx="22" fill="#111827" fill-opacity="0.72" stroke="#A78BFA" stroke-opacity="0.35"/>
  <rect x="676" y="112" width="220" height="120" rx="22" fill="#111827" fill-opacity="0.72" stroke="#34D399" stroke-opacity="0.35"/>
  <rect x="676" y="356" width="220" height="120" rx="22" fill="#111827" fill-opacity="0.72" stroke="#F59E0B" stroke-opacity="0.35"/>
  <rect x="964" y="174" width="160" height="120" rx="22" fill="#111827" fill-opacity="0.72" stroke="#F87171" stroke-opacity="0.35"/>
  <path d="M270 234H366" stroke="#E2E8F0" stroke-opacity="0.45" stroke-width="12" stroke-linecap="round"/>
  <path d="M586 204H676" stroke="#E2E8F0" stroke-opacity="0.45" stroke-width="12" stroke-linecap="round"/>
  <path d="M586 264H676" stroke="#E2E8F0" stroke-opacity="0.45" stroke-width="12" stroke-linecap="round"/>
  <path d="M896 234H964" stroke="#E2E8F0" stroke-opacity="0.45" stroke-width="12" stroke-linecap="round"/>
  <path d="M786 232V356" stroke="#E2E8F0" stroke-opacity="0.35" stroke-width="10" stroke-linecap="round" stroke-dasharray="10 16"/>
  <text x="134" y="246" fill="#F8FAFC" font-family="Arial, sans-serif" font-size="26" font-weight="700">User</text>
  <text x="432" y="246" fill="#F8FAFC" font-family="Arial, sans-serif" font-size="26" font-weight="700">Client App</text>
  <text x="706" y="184" fill="#F8FAFC" font-family="Arial, sans-serif" font-size="24" font-weight="700">Authorization</text>
  <text x="750" y="212" fill="#F8FAFC" font-family="Arial, sans-serif" font-size="24" font-weight="700">Server</text>
  <text x="726" y="426" fill="#F8FAFC" font-family="Arial, sans-serif" font-size="24" font-weight="700">Token</text>
  <text x="710" y="454" fill="#F8FAFC" font-family="Arial, sans-serif" font-size="24" font-weight="700">Exchange</text>
  <text x="992" y="246" fill="#F8FAFC" font-family="Arial, sans-serif" font-size="24" font-weight="700">API</text>
  <text x="88" y="560" fill="#F8FAFC" font-family="Arial, sans-serif" font-size="52" font-weight="700">OAuth 2.0 in Practice</text>
  <text x="88" y="598" fill="#CBD5E1" font-family="Arial, sans-serif" font-size="22">Authorization code, PKCE, token handling, and the security details that matter</text>
  <defs>
    <linearGradient id="bg" x1="100" y1="70" x2="1100" y2="570" gradientUnits="userSpaceOnUse">
      <stop stop-color="#111827"/>
      <stop offset="0.5" stop-color="#1E1B4B"/>
      <stop offset="1" stop-color="#0F172A"/>
    </linearGradient>
  </defs>
</svg>
