<svg width="1200" height="630" viewBox="0 0 1200 630" fill="none" xmlns="http://www.w3.org/2000/svg">
  <rect width="1200" height="630" rx="32" fill="#0B1120"/>
  <rect x="48" y="48" width="1104" height="534" rx="28" fill="url(#paint0_linear)"/>
  <rect x="112" y="118" width="976" height="356" rx="24" fill="#020617" fill-opacity="0.42"/>
  <path d="M170 392C230 332 270 340 326 270C384 198 428 212 488 306C548 400 596 386 656 266C716 146 762 168 822 266C882 364 926 362 1000 208" stroke="#F8FAFC" stroke-width="12" stroke-linecap="round" stroke-linejoin="round"/>
  <rect x="168" y="150" width="132" height="28" rx="12" fill="#F8FAFC" fill-opacity="0.14"/>
  <rect x="168" y="194" width="96" height="18" rx="9" fill="#F8FAFC" fill-opacity="0.1"/>
  <rect x="870" y="150" width="150" height="28" rx="12" fill="#F8FAFC" fill-opacity="0.14"/>
  <rect x="870" y="194" width="118" height="18" rx="9" fill="#F8FAFC" fill-opacity="0.1"/>
  <text x="112" y="542" fill="#E2E8F0" font-family="Arial, sans-serif" font-size="52" font-weight="700">Enterprise Service Monitoring System</text>
  <text x="112" y="590" fill="#CBD5E1" font-family="Arial, sans-serif" font-size="22">Dashboards, adapter layers, event-driven processing, and centralized logging</text>
  <defs>
    <linearGradient id="paint0_linear" x1="84" y1="86" x2="1092" y2="558" gradientUnits="userSpaceOnUse">
      <stop stop-color="#059669"/>
      <stop offset="0.5" stop-color="#0EA5E9"/>
      <stop offset="1" stop-color="#1D4ED8"/>
    </linearGradient>
  </defs>
</svg>
